<svg xmlns="http://www.w3.org/2000/svg" width="1200" height="675" viewBox="0 0 1200 675">
  <defs>
    <linearGradient id="bg" x1="0" y1="0" x2="1" y2="1">
      <stop offset="0" stop-color="#0b1020"/>
      <stop offset="1" stop-color="#1b2a4a"/>
    </linearGradient>
    <linearGradient id="card" x1="0" y1="0" x2="1" y2="1">
      <stop offset="0" stop-color="#151c2b"/>
      <stop offset="1" stop-color="#0f1522"/>
    </linearGradient>
  </defs>
  <rect width="1200" height="675" fill="url(#bg)"/>
  <rect x="60" y="60" width="1080" height="555" rx="18" fill="#0f1422" stroke="rgba(255,255,255,0.08)"/>
  <rect x="90" y="100" width="380" height="160" rx="14" fill="url(#card)" stroke="rgba(255,255,255,0.08)"/>
  <rect x="510" y="100" width="600" height="160" rx="14" fill="url(#card)" stroke="rgba(255,255,255,0.08)"/>
  <rect x="90" y="290" width="330" height="140" rx="14" fill="url(#card)" stroke="rgba(255,255,255,0.08)"/>
  <rect x="440" y="290" width="330" height="140" rx="14" fill="url(#card)" stroke="rgba(255,255,255,0.08)"/>
  <rect x="790" y="290" width="320" height="140" rx="14" fill="url(#card)" stroke="rgba(255,255,255,0.08)"/>
  <rect x="90" y="450" width="1020" height="130" rx="14" fill="url(#card)" stroke="rgba(255,255,255,0.08)"/>
  <text x="110" y="140" font-family="Segoe UI, Arial" font-size="26" fill="#e8eefc">CSV Data Insight — Demo</text>
  <text x="110" y="175" font-family="Segoe UI, Arial" font-size="14" fill="#9bb0d3">Flujo completo, KPIs y BI Ready</text>
  <text x="110" y="325" font-family="Segoe UI, Arial" font-size="14" fill="#9bb0d3">Estado del servicio</text>
  <text x="460" y="325" font-family="Segoe UI, Arial" font-size="14" fill="#9bb0d3">Flujo completo</text>
  <text x="810" y="325" font-family="Segoe UI, Arial" font-size="14" fill="#9bb0d3">Token Provider</text>
  <text x="110" y="485" font-family="Segoe UI, Arial" font-size="14" fill="#9bb0d3">BI Endpoints & Export CSV</text>
  <rect x="900" y="120" width="190" height="20" rx="10" fill="#3ea6ff"/>
  <rect x="900" y="150" width="140" height="20" rx="10" fill="#8be0ff"/>
</svg>
